<svg xmlns="http://www.w3.org/2000/svg" width="80" height="80" viewBox="0 0 80 80">
    <g fill="#8C001A" fill-rule="evenodd">
        <path d="M28.028 38.636c-3.028-3.42-7.065-5.303-11.37-5.303-4.306 0-8.343 1.883-11.37 5.303-6.15 6.948-6.15 18.25 0 25.199l11.37 12.844 11.369-12.844c6.15-6.948 6.15-18.251.001-25.199zm-1.997 23.43l-9.372 10.589-9.374-10.588c-5.288-5.972-5.288-15.691 0-21.663C9.8 37.564 13.128 36 16.657 36c3.53 0 6.86 1.564 9.372 4.404 5.288 5.972 5.288 15.69.002 21.663zM64.996 32.676l8.619-9.715c4.637-5.226 4.637-13.728 0-18.954C71.32 1.423 68.26 0 64.995 0c-3.264 0-6.326 1.423-8.619 4.007-4.637 5.226-4.637 13.728 0 18.954l8.62 9.715zM58.371 5.777c1.78-2.006 4.132-3.11 6.624-3.11 2.493 0 4.845 1.104 6.625 3.11 3.77 4.25 3.77 11.164 0 15.414l-6.624 7.468-6.625-7.468c-3.771-4.25-3.771-11.164 0-15.414zM70.139 72.69a1.333 1.333 0 0 0-1.594 1.007 4.626 4.626 0 0 1-.884 1.856 1.332 1.332 0 1 0 2.096 1.648 7.347 7.347 0 0 0 1.39-2.917 1.334 1.334 0 0 0-1.008-1.595zM42.66 41.333a4.69 4.69 0 0 1-1.67-.306 1.338 1.338 0 0 0-1.72.77 1.336 1.336 0 0 0 .77 1.722c.835.317 1.713.48 2.617.481h.476a1.332 1.332 0 1 0 0-2.667h-.473zM39.495 32.901c.241 0 .484-.065.704-.201a4.602 4.602 0 0 1 1.938-.67 1.335 1.335 0 0 0-.292-2.652 7.23 7.23 0 0 0-3.058 1.058 1.333 1.333 0 0 0 .708 2.465zM24.085 77.333H21.42a1.332 1.332 0 1 0 0 2.667h2.666a1.332 1.332 0 1 0 0-2.667zM47.99 53.333c-.114 0-.227.003-.34.008a1.333 1.333 0 0 0 .053 2.666c.018 0 .037 0 .056-.002L50.37 56a1.332 1.332 0 1 0 0-2.667h-2.38zM47.324 32h2.667a1.332 1.332 0 1 0 0-2.667h-2.667a1.332 1.332 0 1 0 0 2.667zM63.704 53.333a1.332 1.332 0 1 0 0 2.667h2.667a1.332 1.332 0 1 0 0-2.667h-2.667zM68.468 42.667c0-.738-.596-1.334-1.333-1.334h-2.667a1.332 1.332 0 1 0 0 2.667h2.667c.736 0 1.333-.596 1.333-1.333zM55.704 56h2.667a1.332 1.332 0 1 0 0-2.667h-2.667a1.332 1.332 0 1 0 0 2.667zM57.99 32a1.332 1.332 0 1 0 0-2.667h-2.666a1.332 1.332 0 1 0 0 2.667h2.667zM48.468 41.333a1.332 1.332 0 1 0 0 2.667h2.667a1.332 1.332 0 1 0 0-2.667h-2.667zM60.468 42.667c0-.738-.596-1.334-1.333-1.334h-2.667a1.332 1.332 0 1 0 0 2.667h2.667c.736 0 1.333-.596 1.333-1.333zM79.235 47.51a1.333 1.333 0 1 0-2.634.422c.038.237.059.479.056.736 0 .448-.064.89-.189 1.317a1.333 1.333 0 1 0 2.56.75c.196-.671.296-1.366.296-2.058a7.088 7.088 0 0 0-.09-1.168zM56.085 77.333H53.42a1.332 1.332 0 1 0 0 2.667h2.666a1.332 1.332 0 1 0 0-2.667zM48.085 77.333H45.42a1.332 1.332 0 1 0 0 2.667h2.666a1.332 1.332 0 1 0 0-2.667zM62.753 66.667c0-.738-.596-1.334-1.333-1.334h-2.667a1.332 1.332 0 1 0 0 2.667h2.667c.736 0 1.333-.596 1.333-1.333zM54.753 66.667c0-.738-.596-1.334-1.333-1.334h-2.667a1.332 1.332 0 1 0 0 2.667h2.667c.736 0 1.333-.596 1.333-1.333zM63.99 77.333h-2.573a1.332 1.332 0 1 0 0 2.667l2.628-.001.039-1.334V80c.737 0 1.287-.596 1.287-1.334 0-.736-.643-1.332-1.38-1.332zM68.708 70.292a1.333 1.333 0 0 0 1.047-2.157 7.391 7.391 0 0 0-2.506-2.038 1.334 1.334 0 0 0-1.188 2.388c.618.306 1.17.755 1.596 1.299.264.333.655.508 1.051.508zM73.793 52.972a4.63 4.63 0 0 1-1.802.361h-.287a1.332 1.332 0 1 0 0 2.667h.287a7.28 7.28 0 0 0 2.833-.57 1.332 1.332 0 1 0-1.03-2.458zM37.372 39.807c.699-.231 1.08-.984.85-1.684a4.658 4.658 0 0 1-.194-2.05 1.332 1.332 0 0 0-1.156-1.489 1.327 1.327 0 0 0-1.49 1.156 7.34 7.34 0 0 0 .305 3.216 1.335 1.335 0 0 0 1.685.85zM32.085 77.333H29.42a1.332 1.332 0 1 0 0 2.667h2.666a1.332 1.332 0 1 0 0-2.667zM45.496 67.459a1.333 1.333 0 0 0 .556-2.546 4.717 4.717 0 0 1-1.637-1.248 1.332 1.332 0 1 0-2.042 1.716 7.384 7.384 0 0 0 2.57 1.956c.18.082.368.122.553.122zM75.661 42.317a7.25 7.25 0 0 0-3.089-.962 1.333 1.333 0 1 0-.208 2.659 4.59 4.59 0 0 1 1.96.61 1.334 1.334 0 0 0 1.337-2.307zM40.085 77.333H37.42a1.332 1.332 0 1 0 0 2.667h2.666a1.332 1.332 0 1 0 0-2.667zM43.407 59.785c.132-.685.409-1.318.825-1.884a1.334 1.334 0 0 0-2.148-1.58 7.307 7.307 0 0 0-1.297 2.963 1.335 1.335 0 0 0 1.31 1.585 1.342 1.342 0 0 0 1.31-1.084z"/>
        <path d="M65.324 20c4.043 0 7.333-3.29 7.333-7.333s-3.29-7.334-7.333-7.334-7.333 3.291-7.333 7.334c0 4.042 3.29 7.333 7.333 7.333zm0-12a4.672 4.672 0 0 1 4.667 4.667 4.672 4.672 0 0 1-4.667 4.666 4.672 4.672 0 0 1-4.667-4.666A4.673 4.673 0 0 1 65.324 8zM16.657 41.333c-4.412 0-8 3.588-8 8s3.588 8 8 8 8-3.588 8-8-3.588-8-8-8zm0 13.334a5.339 5.339 0 0 1-5.333-5.334A5.339 5.339 0 0 1 16.657 44a5.339 5.339 0 0 1 5.334 5.333 5.339 5.339 0 0 1-5.334 5.334z"/>
    </g>
</svg>
